<mxfile host="app.diagrams.net" modified="2022-05-24T16:38:08.517Z" agent="5.0 (Windows NT 10.0; Win64; x64) AppleWebKit/537.36 (KHTML, like Gecko) Chrome/101.0.4951.67 Safari/537.36" etag="ftzznYS0FvZhgOyU2fOQ" version="18.0.6" type="github">
  <diagram id="M8sAi99D3wYmP6poNxop" name="Page-1">
    <mxGraphModel dx="1865" dy="547" grid="1" gridSize="10" guides="1" tooltips="1" connect="1" arrows="1" fold="1" page="1" pageScale="1" pageWidth="827" pageHeight="1169" math="0" shadow="0">
      <root>
        <mxCell id="0" />
        <mxCell id="1" parent="0" />
        <mxCell id="dvrULnuWH1hM13txu6G7-8" value="StarWars" style="ellipse;whiteSpace=wrap;html=1;aspect=fixed;fillColor=#dae8fc;strokeColor=#6c8ebf;" vertex="1" parent="1">
          <mxGeometry x="319" y="5" width="190" height="190" as="geometry" />
        </mxCell>
        <mxCell id="dvrULnuWH1hM13txu6G7-7" value="StarWars" style="ellipse;whiteSpace=wrap;html=1;aspect=fixed;fillColor=#d5e8d4;strokeColor=#82b366;" vertex="1" parent="1">
          <mxGeometry x="480" y="125" width="190" height="190" as="geometry" />
        </mxCell>
        <mxCell id="dvrULnuWH1hM13txu6G7-6" value="StarWars" style="ellipse;whiteSpace=wrap;html=1;aspect=fixed;fillColor=#fff2cc;strokeColor=#d6b656;" vertex="1" parent="1">
          <mxGeometry x="160" y="125" width="190" height="190" as="geometry" />
        </mxCell>
        <mxCell id="dvrULnuWH1hM13txu6G7-1" value="StarWars" style="ellipse;whiteSpace=wrap;html=1;aspect=fixed;" vertex="1" parent="1">
          <mxGeometry x="215" y="180" width="80" height="80" as="geometry" />
        </mxCell>
        <mxCell id="dvrULnuWH1hM13txu6G7-4" style="edgeStyle=orthogonalEdgeStyle;rounded=0;orthogonalLoop=1;jettySize=auto;html=1;" edge="1" parent="1" source="dvrULnuWH1hM13txu6G7-2" target="dvrULnuWH1hM13txu6G7-3">
          <mxGeometry relative="1" as="geometry" />
        </mxCell>
        <mxCell id="dvrULnuWH1hM13txu6G7-5" style="edgeStyle=orthogonalEdgeStyle;rounded=0;orthogonalLoop=1;jettySize=auto;html=1;entryX=0.5;entryY=0;entryDx=0;entryDy=0;" edge="1" parent="1" source="dvrULnuWH1hM13txu6G7-2" target="dvrULnuWH1hM13txu6G7-1">
          <mxGeometry relative="1" as="geometry" />
        </mxCell>
        <mxCell id="dvrULnuWH1hM13txu6G7-2" value="Luke Skywalker" style="ellipse;whiteSpace=wrap;html=1;aspect=fixed;" vertex="1" parent="1">
          <mxGeometry x="374" y="60" width="80" height="80" as="geometry" />
        </mxCell>
        <mxCell id="dvrULnuWH1hM13txu6G7-3" value="FireLord" style="ellipse;whiteSpace=wrap;html=1;aspect=fixed;" vertex="1" parent="1">
          <mxGeometry x="536" y="180" width="80" height="80" as="geometry" />
        </mxCell>
        <mxCell id="dvrULnuWH1hM13txu6G7-9" value="Response Generator" style="rounded=0;whiteSpace=wrap;html=1;fillColor=#e1d5e7;strokeColor=#9673a6;" vertex="1" parent="1">
          <mxGeometry x="339" y="370" width="150" height="60" as="geometry" />
        </mxCell>
        <mxCell id="dvrULnuWH1hM13txu6G7-10" value="Node Class&lt;br&gt;Search As a Map&lt;br&gt;How many times it used.&lt;br&gt;&lt;br&gt;Use the the most used out of used ones out of calculation based on how many sentences were involved in the conversation (Search it through the BST)&lt;br&gt;&lt;br&gt;So get word out of Join through SQL &amp;gt;&amp;gt; Use them and ask them about it&lt;br&gt;&lt;br&gt;Vector Space" style="rounded=0;whiteSpace=wrap;html=1;" vertex="1" parent="1">
          <mxGeometry x="-100" y="90" width="220" height="200" as="geometry" />
        </mxCell>
        <mxCell id="dvrULnuWH1hM13txu6G7-11" value="How to Use them:&lt;br&gt;&lt;br&gt;- We might not use the already used one too much &amp;gt;&amp;gt; make a randomness there.&amp;nbsp;" style="rounded=0;whiteSpace=wrap;html=1;" vertex="1" parent="1">
          <mxGeometry x="-100" y="300" width="220" height="200" as="geometry" />
        </mxCell>
      </root>
    </mxGraphModel>
  </diagram>
</mxfile>
